<?xml version="1.0" encoding="UTF-8"?>
<svg height="16px" viewBox="0 0 16 16" width="16px" xmlns="http://www.w3.org/2000/svg">
    <g fill="#e5e5e5">
        <path d="M 8 1.5 C 7.4 1.5 7 1.9 7 2.5 V 3 C 5.3 3.4 4 4.9 4 6.8 V 9.5 L 2.5 11.5 V 12.5 H 13.5 V 11.5 L 12 9.5 V 6.8 C 12 4.9 10.7 3.4 9 3 V 2.5 C 9 1.9 8.6 1.5 8 1.5 Z M 8 3.8 C 9.7 3.8 11 5.1 11 6.8 V 9.8 L 11.9 11 H 4.1 L 5 9.8 V 6.8 C 5 5.1 6.3 3.8 8 3.8 Z"/>
        <path d="M 6.3 13 C 6.5 14 7.2 14.5 8 14.5 C 8.8 14.5 9.5 14 9.7 13 Z"/>
    </g>
</svg>
